<svg data-name="Layer 1" xmlns="http://www.w3.org/2000/svg" viewBox="0 0 30 26.295"><title>chat</title><path d="M26.1 18.878a9.9 9.9 0 0 0 3.9-7.594C30 5.048 23.284 0 15 0S0 5.048 0 11.284s6.716 11.284 15 11.284a19.673 19.673 0 0 0 4.138-.435c.532.762 3.047 3.854 9 4.162 0 0-3.209-3.3-2.042-7.418" fill="#fff" fill-rule="evenodd"/><path d="M9.463 11.688a1.411 1.411 0 1 0 1.41 1.41 1.41 1.41 0 0 0-1.41-1.41M15 11.688a1.411 1.411 0 1 0 1.41 1.41 1.41 1.41 0 0 0-1.41-1.41M20.7 11.688a1.411 1.411 0 1 0 1.409 1.41 1.41 1.41 0 0 0-1.409-1.41" fill="#5b5c5f" fill-rule="evenodd"/></svg>