<svg id="Layer_1" xmlns="http://www.w3.org/2000/svg" viewBox="0 0 32 32"><style>.st0,.st1{fill-rule:evenodd;clip-rule:evenodd;fill:#fff}.st1{fill:#ffa97d}</style><path class="st0" d="M21.2 13.9c-.5-1.8-2.2-3.1-4.1-3.1-1.7 0-3.2 1-3.9 2.5-.2-.1-.5-.2-.8-.2-1 0-1.7.8-1.7 1.7-1.1.4-1.8 1.4-1.8 2.6 0 1.5 1.3 2.8 2.8 2.8.4 0 .7-.1 1-.2h6.7c.3.1.5.1.8.1.3 0 .6 0 .9-.1 1.3-.4 2.3-1.6 2.3-3.1 0-1.4-1-2.6-2.2-3"/><path class="st1" d="M6.6 16c0-5.2 4.2-9.4 9.4-9.4h.9l-.2 1.9 5.9-3.2L17.4 1l-.2 1.9c-.4 0-.8-.1-1.2-.1-7.3.1-13.2 6-13.2 13.2 0 3.7 1.6 7.1 4.1 9.5l2.6-2.7c-1.8-1.7-2.9-4.1-2.9-6.8M25.2 6.6l-2.7 2.7c1.8 1.7 2.9 4.1 2.9 6.8 0 5.2-4.2 9.4-9.4 9.4h-.9l.1-1.8-5.9 3.1 5.3 4.3.2-1.8c.4 0 .8.1 1.2.1 7.3 0 13.2-5.9 13.2-13.2 0-3.9-1.5-7.2-4-9.6"/></svg>