<svg id="Layer_1" xmlns="http://www.w3.org/2000/svg" viewBox="0 0 32 32"><style>.st0{fill-rule:evenodd;clip-rule:evenodd;fill:#fff}</style><path class="st0" d="M7.8 23.1c-1.6 0-3.1-.6-4.5-1.6-.5-.4-1.6-1.5-2.1-3.4-.9-3.3 1-6.6 2.8-7.8 5-3 7.8-.2 8.8.7.1.1.2.1.2.2 1.1.9 2.3 2 3 2.7 1.3-1.3 2.6-2.6 3.5-3.4l.1-.1c1.4-1.2 3-1.7 4.9-1.5 2.1.2 4 1.3 4.7 2.2 1.9 2.5 2 4.8 1.7 6.3-.4 1.9-1.4 3.1-1.8 3.6-1.9 2.1-4.4 2.6-7.2 1.6-1.9-.7-3.4-2-3.4-2l1-1.1 1-1.1s1.1 1 2.5 1.5c2.1.8 3.3-.1 3.9-.8.4-.5 2.3-2.9-.1-6-.2-.3-1.4-1-2.7-1.1-1-.1-1.8.2-2.5.8-2.7 2.7-9.3 9.1-9.3 9.1l-.1.1H12c-.1.1-1.2.8-2.8 1-.4.1-.9.1-1.4.1m-3.7-5.8c.3 1.2 1 1.8 1.2 1.9 2.1 1.7 4.5.6 5.1.3.4-.4 1.9-1.8 3.6-3.5-.8-.7-1.8-1.7-2.8-2.5l-.3-.3c-.9-.8-2.2-2.1-5.1-.3-1 .5-2.2 2.6-1.7 4.4"/></svg>