<svg id="Layer_1" xmlns="http://www.w3.org/2000/svg" viewBox="0 0 32 32"><style>.st0,.st1{fill-rule:evenodd;clip-rule:evenodd;fill:#fff}.st1{fill:#4aa100}</style><path class="st0" d="M11.3 7h9.4c.3 0 .5-.2.5-.5V4c0-.3-.2-.5-.5-.5h-2.3v-.1c0-1.3-1-2.4-2.4-2.4-1.3 0-2.4 1.1-2.4 2.4v.1h-2.3c-.3 0-.5.2-.5.5v2.5c-.1.3.2.5.5.5M16 2.4c.6 0 1.1.5 1.1 1.1 0 .6-.5 1.1-1.1 1.1-.6 0-1.1-.5-1.1-1.1.1-.6.5-1.1 1.1-1.1"/><path class="st0" d="M24.9 4h-2.4v1.5h2.4c.6 0 1.1.5 1.1 1.1v22c0 .6-.5 1.1-1.1 1.1H7.2c-.6 0-1.1-.5-1.1-1.1v-22c0-.6.5-1.1 1.1-1.1h2.4V4H7.1C5.8 4 4.7 5.1 4.7 6.4v22.2c0 1.3 1.1 2.4 2.4 2.4h17.8c1.3 0 2.4-1.1 2.4-2.4V6.4c0-1.3-1.1-2.4-2.4-2.4"/><path class="st1" d="M23.1 12.7h-7.3c-.3 0-.5-.2-.5-.5s.2-.5.5-.5h7.3c.3 0 .5.2.5.5-.1.3-.3.5-.5.5M23.1 15.9h-5.6c-.3 0-.5-.2-.5-.5s.2-.5.5-.5h5.6c.3 0 .5.2.5.5-.1.3-.3.5-.5.5M23.1 22.4h-5.6c-.3 0-.5-.2-.5-.5s.2-.5.5-.5h5.6c.3 0 .5.2.5.5-.1.3-.3.5-.5.5M23.1 25.7H9c-.3 0-.5-.2-.5-.5s.2-.5.5-.5h14.1c.3 0 .5.2.5.5-.1.3-.3.5-.5.5M23.1 19.2h-7.3c-.3 0-.5-.2-.5-.5s.2-.5.5-.5h7.3c.3 0 .5.2.5.5-.1.2-.3.5-.5.5M11.3 10.2c-1.5 0-2.8 1.2-2.8 2.8 0 1.5 1.2 2.8 2.8 2.8s2.8-1.2 2.8-2.8c0-1.6-1.2-2.8-2.8-2.8m1.7 2.1c-.4.4-1.5 1.6-1.8 2.1-.1.2-.3.2-.4.2-.2 0-.3-.1-.4-.3-.3-.6-.5-.9-.8-1.2-.1-.1-.2-.2-.2-.3-.2-.2-.2-.5 0-.7.2-.2.5-.2.7 0 .1.1.1.2.2.2.2.2.4.4.6.7.6-.7 1.3-1.5 1.4-1.6.2-.2.5-.2.7 0 .2.4.2.7 0 .9M11.3 17.2c-1.5 0-2.8 1.2-2.8 2.8 0 1.5 1.2 2.8 2.8 2.8s2.8-1.2 2.8-2.8c0-1.5-1.2-2.8-2.8-2.8m1.7 2.2c-.4.4-1.5 1.6-1.8 2.1-.1.2-.3.2-.4.2-.2 0-.3-.1-.4-.3-.3-.6-.5-.9-.8-1.2-.1-.1-.2-.2-.2-.3-.2-.2-.2-.5 0-.7.2-.2.5-.2.7 0 .1.1.1.2.2.2.2.2.4.4.6.7.6-.7 1.3-1.5 1.4-1.6.2-.2.5-.2.7 0 .2.3.2.7 0 .9"/></svg>