<svg id="Layer_1" xmlns="http://www.w3.org/2000/svg" viewBox="0 0 32 32"><style>.st0{fill-rule:evenodd;clip-rule:evenodd;fill:#fff}</style><path class="st0" d="M6.3 15.3s1.1 0 1.6-1c.4 0 1.9-.1 2.5-.5 0 0-1-.4-1-2.5 0-1.3-.1-3.9-3.2-4-3.1.1-3.2 2.7-3.2 4 0 2-1 2.5-1 2.5.6.4 2.1.5 2.5.5.7 1 1.8 1 1.8 1M12.3 12.6c.2.5 1.4 3.3 3.1 3 1.7.3 2.9-2.5 3.1-3 .4 0 1-.4 1-.7.3-1.3-.5-1-.5-1 .8-3-.7-3.8-1.2-4-.9-1-2.3-.9-2.5-.9-.1 0-1.5-.1-2.5.9-.4.2-2 1-1.2 4 0 0-.7-.3-.5 1 .3.3.9.8 1.2.7M21.1 12.1c.1.3.3.8.8.7.2.4 1 2.4 2.5 2.5 1.5-.1 2.3-2.1 2.5-2.5.5.1.6-.4.8-.7.3-.6-.3-.8-.3-.8.5-1.7.1-2.7-.7-3.3.1-.4.4-.9.4-.9-.3.1-.8.2-1 .3-.2 0-.2-.7-.3-1-.3.1-.4.6-.4.6l-.7-.6v.7h-.3s-4.3.2-3 4.1c0 .2-.6.3-.3.9M22.4 19.1c-.3-1.8-2-2.3-2-2.3l-2.1-.5c-1 4.9-1.8 7.1-1.8 7.1l-.5-5.1.2-.6-.8-.4-.8.4.2.6-.5 5.1s-.8-2.2-1.8-7.1l-2.1.5s-1.7.5-2 2.3c-.3 1.8-.8 5.6-.8 5.6s-.5 1.3 1 1.3h13.6c1.5 0 1.1-1.3 1.1-1.3s-.5-3.8-.9-5.6zm-4 4h2.2v-.6h-2.2v.6z"/><path class="st0" d="M9.6 16.2c-.1-.1-.2-.1-.2-.1l-1.1-.5c.2.8-.7 1.7-.7 1.7l-1.3 1.4-1.6-1.8s-.4-.4-.4-1.3l-1.1.5s-1 .2-1.3 2c-.4 1.7-.9 5.7-.9 5.7s-.1.9.8.9h4.9v-.1c.1-.6.5-3.9.8-5.6.3-1.6 1.4-2.4 2.1-2.8"/><path class="st0" d="M6.3 18.4l1.2-1.2c-1.2.4-2.3 0-2.3 0l1.1 1.2zM31 23.3s-.4-4.3-.5-4.7c-.1-2.1-1.8-2.4-1.8-2.4l-2-.5c-.7 1.4-2.2 2.3-2.2 2.3s-1.4-1-2.1-2.4l-1.7.4c.2.1 2.2.7 2.6 3 .3 1.7.7 5 .8 5.6v.1h6c1.2 0 .9-1.4.9-1.4"/></svg>