<svg id="Layer_1" xmlns="http://www.w3.org/2000/svg" viewBox="0 0 32 32"><style>.st0{fill-rule:evenodd;clip-rule:evenodd;fill:#fff}</style><path class="st0" d="M24.7 19.7c-.8-.8-2.2-.8-3.1.1l-2.1 2.1c-.1-.1-.3-.2-.4-.2C17.8 21 16 20 14 18c-1.9-1.9-2.9-3.7-3.7-5.1-.1-.1-.2-.3-.2-.4l1.4-1.4.7-.7c.9-.9.9-2.2.1-3.1L8.2 3.1c-.8-.8-2.2-.8-3.1.1L4 4.3c-.4.6-.7 1.2-1 1.8-.2.6-.4 1.2-.4 1.7-.6 4.6 1.5 8.8 7.2 14.5 7.8 7.8 14.1 7.2 14.4 7.2.6-.1 1.2-.2 1.7-.4.6-.2 1.2-.6 1.7-1l1.2-1.1c.9-.9.9-2.2.1-3.1l-4.2-4.2z"/></svg>